<svg xmlns="http://www.w3.org/2000/svg" width="350" height="350" viewBox="0 0 350 350">
  <g id="_81020_blastpheme_logotypes-19-01" data-name="81020_blastpheme_logotypes-19-01" transform="translate(0.9 -0.5)">
    <rect id="Rectangle_2" data-name="Rectangle 2" width="350" height="350" transform="translate(-0.9 0.5)"/>
    <path id="Tracé_31" data-name="Tracé 31" d="M308.816,235.5c-5.5,11.581-14.747,19.329-25.328,25.744v6.915h0V325.4H256.661c-4.416,11.164-12.164,19.5-23.161,25.161v.75h49.989v33.076c3.832-11,9.414-19.079,16.663-24.328,4.082-2.333,7-4.666,8.748-6.915v-1.75H358.8a48.4,48.4,0,0,1-23.245-25.911H308.9v-57.57h-.083V235.5Z" transform="translate(-111.75 -118.035)" fill="#fff"/>
    <g id="Groupe_3" data-name="Groupe 3" transform="translate(49.1 117.3)">
      <path id="Tracé_32" data-name="Tracé 32" d="M231.247,229.4H145.1v1.416c2.083,0,6.582,2.749,13.414,8.165,4,3.416,7.915,8.915,11.831,16.413H215c0,.833,3,7.082,8.915,18.579v.75H183.091l-1.5.75A51.126,51.126,0,0,0,209.085,300.8h15.58c-5.915,11.5-8.915,17.663-8.915,18.579H203.087v-14.83c-14.247-9.331-22.162-17.246-23.745-23.828h-1.5v38.658h-7.415c-8.081,14.163-17.413,22.328-25.161,24.494v1.416h60.819l17.246-9.414C236.746,325.378,237,316.213,237,316.213h8.915c3.832-7.832,8.331-17.163,13.664-28.16Q233.33,229.442,231.247,229.4Z" transform="translate(-145.1 -229.317)" fill="#fff"/>
      <g id="Groupe_2" data-name="Groupe 2" transform="translate(152.382)">
        <path id="Tracé_33" data-name="Tracé 33" d="M390.736,256.127c1,.333,4.582.25,10.664,13.08,0,1-3.333,8.331-9.914,21.995l13,16.829h.833q2.749-6.374,19.745-37.241v-.833c-14-26.327-21.662-39.491-22.828-39.491L328,229.3v26.91Z" transform="translate(-328 -229.3)" fill="#fff"/>
        <path id="Tracé_34" data-name="Tracé 34" d="M381.627,309.207V266.8H355.8v55.487h2.416s10.248,21.828,28.827,29.243h26.244C395.874,343.449,381.544,318.538,381.627,309.207Z" transform="translate(-332.639 -235.557)" fill="#fff"/>
      </g>
    </g>
  </g>
</svg>
